<?xml version="1.0" encoding="utf-8"?>
<!-- Generator: Adobe Illustrator 25.0.0, SVG Export Plug-In . SVG Version: 6.00 Build 0)  -->
<svg version="1.1" id="Layer_1" xmlns="http://www.w3.org/2000/svg" xmlns:xlink="http://www.w3.org/1999/xlink" x="0px" y="0px"
	 viewBox="0 0 181.4 181.4" style="enable-background:new 0 0 181.4 181.4;" xml:space="preserve">
<style type="text/css">
	.st0{fill:#68AFD6;}
	.st1{fill:#D3E9D5;}
</style>
<g>
	<g id="Ear_21_">
		<path class="st0" d="M124.6,0.1C93.4,0.1,68,25.5,68,56.7c0,2.5,2,4.5,4.5,4.5s4.5-2,4.5-4.5c0-26.3,21.4-47.6,47.6-47.6
			c26.3,0,47.6,21.4,47.6,47.6c0,36.1-17.5,52-33,66.1l-0.9,0.8c-16.2,14.8-22.3,33.4-23,35.7c-2.6,6.2-8.2,10.9-15.3,12.5
			c-7.4,1.7-14.8-0.3-19.9-5.2c-4.1-4-6.5-9.7-6.5-15.5c0-2.5-2-4.5-4.5-4.5c0,0,0,0,0,0c-2.5,0-4.5,2-4.5,4.5
			c0,8.2,3.4,16.2,9.2,21.9c5.6,5.4,13.1,8.4,20.9,8.4c2.4,0,4.8-0.3,7.3-0.8c10.4-2.4,18.6-9.5,22.1-19c0.1-0.2,0.1-0.4,0.2-0.7
			c1.5-4.2,7.3-18.9,20.1-30.6l0.9-0.8c16-14.5,35.9-32.6,35.9-72.7C181.3,25.5,155.9,0.1,124.6,0.1z"/>
		<path class="st1" d="M104.1,104.9c0,0-18.7,8.1-7.5,24.6c7.3,10.7,59.5-32.5,51.9-65.4s-18.1-38.6-35.5-34.2
			c-29.4,7.5-2.7,47.2-2.7,47.2S132.8,95.3,104.1,104.9z"/>
		<path class="st0" d="M148.7,44C148.7,44,148.7,44,148.7,44c-2.6-8.1-8.8-14.8-16.7-18c-12.7-5.2-28.4-0.1-35.7,11.6
			c-7.3,11.7-4.7,28.1,6,37.4c0,0,0.1,0,0.1,0.1c0,0,0,0,0.1,0.1c0.1,0.1,8.3,6.8,8.1,14.7c-0.1,4.6-3.2,9-9.1,13.2
			c-2,1.4-2.5,4.3-1.1,6.3c0.9,1.2,2.3,1.9,3.7,1.9c0.9,0,1.8-0.3,2.6-0.8c8.3-5.9,12.7-12.8,12.9-20.4c0.3-11.9-10-20.8-11.4-21.9
			c-7.3-6.4-9.2-17.9-4.3-25.8c5-8,16.1-11.6,24.7-8.1c5.4,2.2,9.7,6.9,11.5,12.6c0,0,0,0,0,0.1c0,0,0,0.1,0,0.1
			c8.2,22.8,3.8,42.8-13.2,59.4c-13.1,12.8-29,18.7-29.2,18.8c-2.3,0.9-3.5,3.4-2.7,5.8c0.7,1.8,2.4,3,4.2,3c0.5,0,1-0.1,1.5-0.3
			c0.7-0.3,17.7-6.6,32.2-20.6C146.8,99.8,160.6,77.1,148.7,44z"/>
	</g>
	<g>
		<g>
			<path class="st0" d="M26.4,125.1c-9.2,0-11.9-14.1-15.3-32c-1.6-8.4-4.3-22.3-6.9-24.7c-2.3-0.2-4-2.1-4-4.5c0-2.5,2-4.5,4.5-4.5
				c9.2,0,11.9,14.1,15.3,32c1.5,7.9,4,20.7,6.5,24.2c2.5-3.5,5-16.3,6.5-24.2c3.4-17.9,6.1-32,15.3-32c2.5,0,4.5,2,4.5,4.5
				c0,2.3-1.8,4.2-4,4.5c-2.6,2.4-5.3,16.3-6.9,24.7C38.3,111,35.6,125.1,26.4,125.1z M4.6,68.4L4.6,68.4L4.6,68.4z"/>
		</g>
		<g>
			<path class="st0" d="M70,125.1c-9.2,0-11.9-14.1-15.3-32c-1.6-8.4-4.3-22.3-6.9-24.7c-2.3-0.2-4-2.1-4-4.5c0-2.5,2-4.5,4.5-4.5
				c9.2,0,11.9,14.1,15.3,32c1.5,7.9,4,20.7,6.5,24.2c2.5-3.5,5-16.3,6.5-24.2c0.5-2.4,2.8-4,5.3-3.6c2.4,0.5,4,2.8,3.6,5.3
				C81.9,111,79.2,125.1,70,125.1z M48.2,68.4L48.2,68.4L48.2,68.4z"/>
		</g>
	</g>
</g>
</svg>
