<?xml version="1.0" encoding="utf-8"?>
<!-- Generator: Adobe Illustrator 25.0.0, SVG Export Plug-In . SVG Version: 6.00 Build 0)  -->
<svg version="1.1" id="Layer_1" xmlns="http://www.w3.org/2000/svg" xmlns:xlink="http://www.w3.org/1999/xlink" x="0px" y="0px"
	 viewBox="0 0 181.4 181.4" style="enable-background:new 0 0 181.4 181.4;" xml:space="preserve">
<style type="text/css">
	.st0{fill:#007DBD;}
	.st1{fill:#D3E9D5;}
</style>
<g>
	<g id="Ear_14_">
		<path class="st0" d="M124.4,0.1c-31.2,0-56.6,25.4-56.6,56.6c0,2.5,2,4.5,4.5,4.5s4.5-2,4.5-4.5c0-26.3,21.4-47.6,47.6-47.6
			c26.3,0,47.6,21.4,47.6,47.6c0,36.1-17.5,52-33,66.1l-0.9,0.8c-16.2,14.8-22.3,33.4-23,35.7c-2.6,6.2-8.2,10.9-15.3,12.5
			c-7.4,1.7-14.8-0.3-19.9-5.2c-4.1-4-6.5-9.7-6.5-15.5c0-2.5-2-4.5-4.5-4.5c0,0,0,0,0,0c-2.5,0-4.5,2-4.5,4.5
			c0,8.2,3.4,16.2,9.2,21.9c5.6,5.4,13.1,8.4,20.9,8.4c2.4,0,4.8-0.3,7.3-0.8c10.4-2.4,18.6-9.5,22.1-19c0.1-0.2,0.1-0.4,0.2-0.7
			c1.5-4.2,7.3-18.9,20.1-30.6l0.9-0.8c16-14.5,35.9-32.6,35.9-72.7C181.1,25.5,155.6,0.1,124.4,0.1z"/>
		<path class="st1" d="M103.9,104.9c0,0-18.7,8.1-7.5,24.6c7.3,10.7,59.5-32.5,51.9-65.4s-18.1-38.6-35.5-34.2
			c-29.4,7.5-2.7,47.2-2.7,47.2S132.5,95.3,103.9,104.9z"/>
		<path class="st0" d="M148.5,44C148.5,44,148.5,44,148.5,44c-2.6-8.1-8.8-14.8-16.7-18c-12.7-5.2-28.4-0.1-35.7,11.6
			c-7.3,11.7-4.7,28.1,6,37.4c0,0,0.1,0,0.1,0.1c0,0,0,0,0.1,0.1c0.1,0.1,8.3,6.8,8.1,14.7c-0.1,4.6-3.2,9-9.1,13.2
			c-2,1.4-2.5,4.3-1.1,6.3c0.9,1.2,2.3,1.9,3.7,1.9c0.9,0,1.8-0.3,2.6-0.8c8.3-5.9,12.7-12.8,12.9-20.4c0.3-11.9-10-20.8-11.4-21.9
			c-7.3-6.4-9.2-17.9-4.3-25.8c5-8,16.1-11.6,24.7-8.1c5.4,2.2,9.7,6.9,11.5,12.6c0,0,0,0,0,0.1c0,0,0,0.1,0,0.1
			c8.2,22.8,3.8,42.8-13.2,59.4c-13.1,12.8-29,18.7-29.2,18.8c-2.3,0.9-3.5,3.4-2.7,5.8c0.7,1.8,2.4,3,4.2,3c0.5,0,1-0.1,1.5-0.3
			c0.7-0.3,17.7-6.6,32.2-20.6C146.6,99.8,160.4,77.1,148.5,44z"/>
	</g>
	<g>
		<path class="st0" d="M61.6,112.2c-8,0-10.9-9.2-13.7-18.1c-1.2-3.8-3.4-10.9-5.2-11.8c-1.7,0.9-3.9,8-5.1,11.8
			c-2.8,8.9-5.7,18.1-13.7,18.1c-8,0-10.9-9.2-13.7-18.1c-1.2-3.9-3.5-11.1-5.2-11.9c-2.5,0-4.5-2-4.5-4.5s2.1-4.5,4.5-4.5
			c8,0,10.9,9.2,13.7,18.1c1.2,3.8,3.4,10.9,5.1,11.8c1.7-0.9,3.9-8,5.1-11.8c2.8-8.9,5.7-18.1,13.7-18.1c8,0,10.9,9.2,13.7,18.1
			c1.2,3.8,3.4,10.9,5.2,11.8c1.7-0.9,3.9-8,5.2-11.8c2.8-8.9,5.7-18.1,13.7-18.1c2.5,0,4.5,2,4.5,4.5s-2,4.5-4.5,4.5
			c-1.6,0.7-3.9,8-5.2,11.8C72.5,103,69.6,112.2,61.6,112.2z"/>
	</g>
</g>
</svg>
